<?xml version="1.0" encoding="UTF-8"?>
<svg id="Capa_1" data-name="Capa 1" xmlns="http://www.w3.org/2000/svg" viewBox="0 0 310.717453 247.498483">
  <path d="M267.277536,162.597225c1.976646-11.25443,2.133721-22.339899-2.043576-33.162396-.089226,.000738-.178451,.001465-.267698,.002203,.020842,.337997,.04006,.676102,.062954,1.01396,.025652,.378489,.042689,.758069,.083967,1.134922,.65874,6.014715,.387557,12.004478-.48777,17.976658-1.063205,7.25385-3.007615,14.262611-5.9045,20.999064-3.712785,8.633754-8.701065,16.438787-15.280935,23.172385-7.641387,7.819899-16.575691,13.528349-27.296454,16.080565-7.80045,1.857013-15.598377,1.913997-23.259847-.85471-.185677-.067101-.361135-.162459-.56884-.257196,1.35399-2.169652,2.743765-4.259455,3.996238-6.428615,4.302029-7.450747,8.593712-14.907997,12.818037-22.403,4.49662-7.978123,8.82118-16.054448,13.38971-23.99055,4.240037-7.365453,9.083277-14.342878,14.304284-21.052497,.280631-.360671,.53809-.739417,.733386-1.204387-3.694465,.863117-6.657467,3.053282-9.748601,5.303758,0-.425462-.04053-.752326,.00605-1.066238,.689928-4.647966,2.050865-9.123088,3.862506-13.430061,2.102468-4.998412,4.457821-9.89029,6.701995-14.829056,.114279-.251463,.215454-.508884,.245873-.817395-3.705966,1.736404-6.60689,4.417689-9.283853,7.647409-.016652-.327805-.060859-.507429-.029158-.672423,1.778315-9.254819,2.733418-18.59537,2.717642-28.017846-.007824-4.665302-.127126-9.339268-.438134-13.993116-.475372-7.113552-3.558724-13.120352-8.464704-18.179486-4.191448-4.322294-9.150699-7.680991-14.274079-10.787514-4.248887-2.576264-8.689329-4.775248-13.360926-6.48939-.1907-.069978-.403162-.140758-.54259-.276062-.197199-.191384-.33574-.443269-.499356-.669289,.222573-.154518,.426441-.399008,.670561-.449804,2.800135-.582686,5.479235-.33003,8.055621,1.03634,6.971874,3.697523,13.343195,8.248666,19.209217,13.505953,7.120163,6.381295,13.379791,13.507937,18.388999,21.687305,3.456352,5.64376,6.283805,11.585706,8.465859,17.838034,3.348079,9.593351,5.031247,19.474947,5.047621,29.625995,.010795,6.702089-.710236,13.337185-2.228269,19.877778-2.354455,10.144588-6.328247,19.579384-12.330139,28.114883-1.404674,1.997632-2.960159,3.889083-4.412011,5.889561,.195745-.178737,.404979-.344874,.58529-.538049,6.74494-7.226503,11.597073-15.602826,15.093335-24.811945,2.56123-6.746378,4.214236-13.715086,5.084154-20.865033,1.053457-8.65846,.795229-17.291797-.668188-25.895541-1.31222-7.714852-3.440127-15.184882-6.573714-22.356925-4.484029-10.262951-10.630618-19.426701-18.309756-27.568224-.074348-.078834-.137729-.168009-.129563-.404628,.276142,.098582,.55827,.183127,.827571,.297811,6.711764,2.858359,12.573062,7.001964,17.856253,11.978548,9.025219,8.501456,15.423089,18.736171,19.707248,30.325016,3.344381,9.046617,5.115642,18.405286,5.510595,28.044434,.484628,11.827538-1.215748,23.324512-5.017609,34.518964-.617184,1.817302-1.33396,3.600743-2.004692,5.399832Z" fill="#fff"/>
  <path d="M43.495668,85.178366c-1.995233,11.230345-2.136369,22.307129,2.043555,33.097969,.094653-.005615,.189308-.01123,.283963-.016845-.056675-.695139-.111492-1.39045-.170542-2.085386-.059296-.697834-.132647-1.39461-.182983-2.093054-.66003-9.158264,.518865-18.114123,2.996879-26.920774,2.699577-9.594057,6.977298-18.421896,12.961335-26.398735,4.733979-6.310483,10.325762-11.726876,16.99185-15.983609,5.940899-3.793656,12.344328-6.45738,19.310878-7.643852,6.599793-1.124013,13.127158-.866822,19.516724,1.300964,.376558,.127758,.741381,.290174,1.213664,.476756-.537428,.846245-1.013708,1.601159-1.494797,2.352983-6.546534,10.23048-12.293633,20.9193-18.145664,31.550943-4.190208,7.612537-8.453808,15.188888-12.877234,22.667324-3.671389,6.207024-7.905312,12.050756-12.338855,17.74189-.18395,.236127-.341239,.493044-.626985,.90933,2.088002-.406778,3.727331-1.295787,5.311061-2.254646,1.584349-.959244,3.08331-2.059707,4.848985-3.253249-1.69524,10.966796-6.422619,20.559281-11.203846,30.379133,2.05125-.90795,3.659429-2.086605,5.170398-3.386702,1.520898-1.308632,2.965108-2.706504,4.381667-4.263134-.051753,.37588-.086575,.755-.15777,1.127157-1.29645,6.776249-2.057834,13.614134-2.43226,20.501378-.369632,6.799137-.27393,13.588915,.187109,20.380576,.465741,6.860933,3.173348,12.754558,7.712865,17.811355,3.833482,4.270321,8.531816,7.501485,13.333361,10.569997,4.782969,3.05664,9.818523,5.621948,15.146242,7.598382,.217592,.080727,.4578,.164234,.618092,.318564,.174828,.168362,.387289,.436467,.361563,.631867-.021719,.165004-.344654,.377901-.56138,.416254-2.478674,.438671-4.952303,.530242-7.277654-.626904-6.912848-3.439953-13.15771-7.881631-18.960709-12.941936-7.944266-6.927521-14.838409-14.763014-20.222866-23.871246-5.70277-9.646624-9.536554-19.980558-11.448319-31.029342-.998263-5.769337-1.475289-11.580695-1.311512-17.428951,.230704-8.237982,1.49631-16.315451,3.992628-24.187896,3.105349-9.793083,7.779645-18.72876,14.418034-26.60137,.292356-.346709,.59368-.68584,.89083-1.0285-.061452-.054139-.12291-.108277-.184362-.162416-1.307213,1.500208-2.663683,2.960593-3.912912,4.507678-4.803843,5.949261-8.497752,12.543094-11.330077,19.638699-3.104152,7.776573-5.028457,15.837198-5.865036,24.158548-.724216,7.203647-.549591,14.389006,.465135,21.56384,1.088165,7.694093,2.997234,15.170187,5.897561,22.371556,3.80006,9.435363,8.984908,18.057802,15.557804,25.829253,1.148476,1.357915,2.368377,2.655317,3.55237,3.983265,.161698,.181368,.306283,.378029,.458794,.567632-.047445,.071978-.094885,.143956-.14233,.215934-1.616034-.773513-3.274085-1.470556-4.841381-2.332774-11.295701-6.214114-20.00615-15.088594-26.636413-26.07739-5.643543-9.353396-9.222668-19.467514-11.086377-30.21414-.929845-5.361704-1.403592-10.767011-1.367992-16.199442,.079793-12.175664,2.33986-23.940165,6.926502-35.237472,.060771-.149678,.152912-.286597,.230412-.429462Z" fill="#fff"/>
  <path d="M139.706365,119.566079v47.971602h-7.294157v-45.585983c-.078324-.027422-.156637-.054855-.23496-.082277-4.646191,9.738056-9.771741,19.173291-17.029975,27.365594-.162579-.198651-.305033-.330083-.396257-.490659-1.107305-1.949162-2.195542-3.909297-3.318526-5.849315-.224507-.387858-.377371-.642851,.013938-1.049329,8.023129-8.334195,13.63429-18.220015,18.365966-28.667274,.406069-.896571,.760599-1.816511,1.206652-2.887925h-16.578759v-7.167519h17.84845v-14.887922c-1.25895,.204159-2.47969,.415569-3.704715,.598274-3.777342,.563333-7.558018,1.104559-11.333062,1.682715-.669663,.102545-.958439-.060877-1.16997-.750187-.502049-1.635988-1.13176-3.232735-1.746485-4.947493,1.566569-.280062,3.131653-.567568,4.699536-.838946,10.091288-1.746629,20.099283-3.836111,29.794944-7.218171,.707446-.246774,1.510937-.778631,2.110463-.610188,.554165,.155699,.903426,1.067837,1.326746,1.658437,.983588,1.372247,1.957429,2.751498,3.024663,4.25384-.745742,.29018-1.390309,.60391-2.069345,.794946-4.2334,1.190975-8.470946,2.367758-12.717257,3.5116-.580127,.156266-.80628,.365484-.803149,.991426,.024807,4.964626,.029574,9.929541-.003078,14.894072-.004927,.747984,.292228,.850304,.927261,.847705,4.844758-.019839,9.689612-.010834,14.534445-.010802h1.175346c0,.978249,.000321,1.871719-.000086,2.765177-.000502,1.107361-.053901,2.217973,.014707,3.321002,.05155,.828678-.180119,1.09811-1.050229,1.090259-4.75689-.042952-9.514378-.027273-14.271588-.00877-.427488,.001658-1.080199,.030021-1.234538,.284821-.323245,.53359,.13557,.98534,.529978,1.416845,5.037959,5.511916,10.062686,11.035982,15.064081,16.581086,.17594,.195089,.224956,.745727,.079745,.952282-1.3088,1.861537-2.673457,3.68377-4.026795,5.513788-.046088,.06232-.145703,.085005-.114119,.067593-3.77328-5.238528-7.53118-10.455687-11.289069-15.672857-.110271,.054181-.220531,.108374-.330802,.162555Z" fill="#fff"/>
  <path d="M161.801789,151.522003c10.255428-1.441337,20.394642-2.866353,30.650455-4.307744-3.429813-9.587287-7.192533-18.867978-11.287038-28.166861,2.282405-.865085,4.499655-1.705474,6.776278-2.568366,.169238,.307805,.319537,.550424,.441105,.806689,5.129162,10.812412,9.773857,21.827603,13.724606,33.127134,1.183448,3.384734,2.189214,6.831372,3.31268,10.237678,.225865,.684818,.053548,.964977-.602241,1.224312-2.24287,.886913-4.458783,1.84204-6.778309,2.810118-.174155-.580188-.324731-1.072067-.469429-1.565668-.828213-2.825017-1.668386-5.646664-2.471545-8.478804-.168811-.595268-.416394-.772155-1.051063-.669535-6.502926,1.051575-13.018346,2.027172-19.515532,3.112383-5.691889,.950699-11.372309,1.975451-17.041689,3.052384-1.647693,.312992-3.24,.917897-4.922323,1.407808-.294622-.907715-.6016-1.902264-.940579-2.885775-.446428-1.295349-.932071-2.577318-1.365384-3.876891-.075053-.225057-.072616-.652487,.060186-.743417,1.492841-1.02195,2.341383-2.544687,3.012382-4.115413,1.453701-3.402863,2.881472-6.825864,4.10839-10.315079,4.444365-12.639372,7.939611-25.557886,10.906301-38.613115,1.711566-7.531901,3.113365-15.134294,4.657019-22.704463,.062954-.308704,.150683-.612359,.247594-1.00157,1.900717,.33581,3.757878,.663733,5.614944,.992158,.430759,.076192,.861592,.152074,1.291742,.231613,1.10443,.204244,1.133341,.211239,.898563,1.311381-1.850439,8.671155-3.604769,17.364716-5.598142,26.002984-2.663581,11.542524-5.969164,22.913403-9.680057,34.162699-1.187467,3.599738-2.495562,7.159615-3.746143,10.738562-.073289,.20971-.125715,.426713-.232769,.794796Z" fill="#fff"/>
</svg>